<?xml version="1.0" encoding="UTF-8"?>
<svg xmlns="http://www.w3.org/2000/svg" width="178.72mm" height="175.787mm" version="1.1" viewBox="0 0 17872 17578.69">
  <path fill="#491D63" d="M8349.37 874.89c-2231.04,0 -4328.53,868.85 -5905.78,2446.12 -1527.79,1528.22 -2390.94,3544.09 -2443.59,5696.25l0 419.01c19.68,804.63 152.51,1589.62 390.9,2337.38 94.71,297.41 206.53,588.8 334.08,872.95l-0.09 0.12c236.19,526.51 528,1028.63 872.51,1499.24l0.09 0.09 22.48 30.55 0.06 0.09 22.6 30.47 0.09 0.09c121.38,162.76 249.09,321.68 383.08,476.42l0.09 -0.09 0.06 0.06 479.14 -479.14 1198.27 -1197.94 -0.15 -0.18 11217.8 -11217.8 1128.22 0 91.94 1108.55 -9.45 -9.45 -12922.96 12923.29 0.05 0.06 -0.05 0.08c538.57,422.68 1122.22,773.66 1739.05,1048.57l0.15 0.06 34.82 15.44 0.15 0.06c116.62,51.37 234.39,99.99 353.28,145.92l0.09 -0.09c298.25,115.19 603.29,212.91 913.88,293.1 677.26,174.53 1381.4,264.53 2099.19,264.53 2231.05,0 4328.54,-868.4 5905.82,-2446.09 1577.27,-1577.28 2446.12,-3674.74 2446.12,-5905.84 0,-717.74 -90.03,-1421.88 -264.6,-2099.14l-2095.34 2095.35 0 3.79c0,3303.9 -2688.09,5991.63 -5992,5991.63l-3.39 0c-377.25,-0.45 -746.83,-35.41 -1104.44,-102.48l-0.09 0 6997.07 -6997.04 0 0.09 1905.46 -1905.43 -0.06 -0.09 524.78 -524.45 1203.31 1203.31 0 -6892.31 -7102.63 0 1301.12 1301.12 -301.02 301.02 -0.12 -0.06 -865.27 865.44 -8335.89 8335.9 0 -0.18c-90.48,-329.94 -152.78,-671.32 -185.21,-1021.68 -17.08,-182.61 -25.61,-367.82 -25.61,-554.79 0,-3303.85 2688.09,-5991.52 5991.99,-5991.52 186.94,0 371.71,8.53 554.35,25.58l1992.5 -1992.47c-812.53,-259.05 -1669.45,-393.47 -2546.85,-393.47z"/>
</svg>
